<svg width="41" height="40" viewBox="0 0 41 40" fill="none" xmlns="http://www.w3.org/2000/svg">
<g clip-path="url(#clip0_3_182)">
<path d="M40.3489 12.3608C40.052 12.9115 39.7604 13.4652 39.4572 14.0137C38.9108 15.0002 38.0233 15.2466 37.0294 14.697L35.8777 14.0653V14.5991C35.8777 22.4544 35.8777 30.3086 35.8777 38.1618C35.8777 38.6671 35.7945 39.1272 35.4292 39.502C35.2798 39.6587 35.0999 39.783 34.9005 39.8672C34.7011 39.9514 34.4865 39.9937 34.27 39.9915C32.2076 39.9978 30.1462 40.0052 28.0838 39.9915C27.3847 39.9915 27.0047 39.3598 27.3237 38.8061C27.5142 38.4776 27.8217 38.4123 28.1659 38.4134C30.0441 38.4134 31.9223 38.4134 33.8005 38.4134H34.2995V37.9375C34.2995 29.8331 34.3023 21.7293 34.3079 13.6263C34.3079 13.2884 34.2027 13.1231 33.9079 12.963C29.4588 10.5191 25.0149 8.06542 20.5763 5.60188C20.2899 5.44291 20.0794 5.43764 19.7909 5.60188C15.3292 8.07806 10.8618 10.5448 6.38879 13.002C6.13823 13.1399 6.04558 13.2873 6.04664 13.5779C6.05506 21.709 6.05716 29.839 6.05295 37.968V38.4176H20.5279C20.6987 38.413 20.8696 38.42 21.0395 38.4386C21.217 38.4603 21.3808 38.5448 21.5011 38.677C21.6215 38.8091 21.6904 38.9801 21.6954 39.1588C21.7123 39.3439 21.6597 39.5287 21.5478 39.6772C21.4359 39.8257 21.2727 39.9272 21.0901 39.962C20.9353 39.991 20.7779 40.0037 20.6205 39.9999C15.8534 39.9999 11.0857 39.9999 6.3172 39.9999C5.08964 39.9999 4.47481 39.3819 4.47481 38.1607C4.47481 30.3068 4.47481 22.4526 4.47481 14.598V14.0716C4.02421 14.3169 3.63889 14.5307 3.24935 14.7391C2.32605 15.2318 1.44907 14.9834 0.933195 14.0811C0.693157 13.66 0.457331 13.2389 0.229927 12.8062C-0.22804 11.9408 0.0193676 11.0438 0.861606 10.5753C7.13137 7.11089 13.4011 3.64824 19.6709 0.18734C20.032 -0.012692 20.3531 0.00836316 20.709 0.206289C23.1655 1.56861 25.622 2.92532 28.0785 4.27641C28.2228 4.35537 28.3691 4.43012 28.5839 4.54487C28.5839 3.72369 28.626 2.97831 28.5755 2.23924C28.4586 0.464224 29.3956 -0.0621715 30.7958 0.00520759C31.8707 0.0599531 32.9498 0.0136284 34.0268 0.0167868C35.2565 0.020998 35.8717 0.633377 35.8724 1.85392C35.8724 3.96794 35.8787 6.08301 35.8661 8.19703C35.8661 8.48865 35.9598 8.63815 36.2125 8.77185C37.1852 9.28983 38.1349 9.85097 39.1119 10.3584C39.6835 10.6543 40.1362 11.0291 40.3447 11.6534L40.3489 12.3608ZM2.37027 13.4063C2.51239 13.3347 2.6282 13.2799 2.7398 13.2178C8.32033 10.1387 13.9002 7.05579 19.4793 3.96899C19.992 3.68368 20.3952 3.69316 20.8995 3.96899C26.1726 6.89928 31.4528 9.81798 36.7399 12.7251C37.1484 12.9504 37.56 13.1725 37.9927 13.4084C38.2622 12.9188 38.5191 12.4609 38.776 11.9892C38.6339 11.905 38.5139 11.8281 38.3886 11.7597C32.441 8.47567 26.4948 5.18988 20.55 1.90235C20.271 1.74759 20.0741 1.76548 19.8067 1.91393C14.5427 4.83018 9.27311 7.74046 3.99789 10.6448C3.19672 11.087 2.39658 11.5333 1.58488 11.9839L2.37027 13.4063ZM30.1641 1.6223C30.1641 2.80249 30.1726 3.93846 30.1578 5.08285C30.1456 5.19103 30.1689 5.30025 30.2241 5.39406C30.2794 5.48786 30.3636 5.56117 30.4642 5.60293C31.6412 6.23461 32.8077 6.89051 33.9784 7.53587C34.0707 7.58198 34.1652 7.62344 34.2616 7.6601V1.6223H30.1641Z" fill="#4F4F4F"/>
<path d="M28.8888 28.9046C29.1046 29.0414 29.3215 29.1762 29.5362 29.3152C30.4174 29.8805 30.4374 30.8175 29.5805 31.4334C29.5289 31.4702 29.4804 31.5123 29.4162 31.5629C29.8058 32.1946 30.1942 32.8262 30.5743 33.4495C31.027 34.197 30.8786 34.835 30.1437 35.295C29.5426 35.6709 28.9404 36.0488 28.3318 36.4068C27.6412 36.8195 27.0074 36.6689 26.5758 35.9857C26.1694 35.3445 25.7778 34.695 25.3724 34.0391C25.2535 34.1033 25.1619 34.1538 25.0734 34.1991C24.2628 34.6044 23.4037 34.1212 23.3258 33.2126C23.2142 31.9314 23.1079 30.649 22.9984 29.3678C22.9836 29.1993 22.9584 29.032 22.9331 28.8309H9.76575C8.51503 28.8309 7.90651 28.2224 7.90651 26.9695C7.90651 23.3974 7.9244 19.8252 7.89493 16.2531C7.88545 15.1087 8.62557 14.3865 9.77312 14.3917C16.7068 14.4212 23.6406 14.4212 30.5743 14.3917C31.6997 14.3917 32.4693 15.0813 32.4546 16.292C32.4209 19.8505 32.443 23.41 32.442 26.9685C32.442 28.2202 31.8313 28.8309 30.5827 28.8309H28.9088L28.8888 28.9046ZM30.8364 16.0131H9.51097V27.2306H22.7846C23.1405 26.0968 23.8669 25.8241 24.8639 26.4315C24.9333 26.4688 25.0001 26.5107 25.064 26.5568C25.3944 26.8348 25.7792 27.0409 26.1938 27.1618C26.6084 27.2827 27.0436 27.3158 27.4717 27.259C27.8602 27.2117 28.2592 27.2506 28.6529 27.2506H30.8364V16.0131ZM28.256 30.3785L24.466 28.0476C24.5965 29.5784 24.7186 31.0049 24.845 32.4693L25.104 32.3304C25.6598 32.0145 26.0304 32.1061 26.3673 32.6378C26.5421 32.9147 26.7105 33.1968 26.8821 33.48L27.7665 34.9087L29.092 34.0885C29.0309 33.9759 28.9867 33.8843 28.9309 33.7969C28.5203 33.1263 28.1013 32.4588 27.6959 31.785C27.3938 31.2839 27.4854 30.8986 27.9707 30.5701L28.256 30.3785Z" fill="#3A71B8"/>
<path d="M24.4786 38.4208C24.5808 38.4213 24.6818 38.4422 24.7758 38.4822C24.8698 38.5222 24.9549 38.5804 25.0261 38.6536C25.0974 38.7268 25.1533 38.8135 25.1907 38.9085C25.2281 39.0036 25.2462 39.1051 25.244 39.2072C25.2446 39.4135 25.1633 39.6116 25.0181 39.758C24.8728 39.9044 24.6754 39.9873 24.4692 39.9884C24.3638 39.9886 24.2594 39.9676 24.1623 39.9267C24.0651 39.8859 23.9772 39.8259 23.9037 39.7504C23.8301 39.6749 23.7725 39.5854 23.7342 39.4872C23.6959 39.389 23.6776 39.2842 23.6806 39.1788C23.6831 39.0766 23.7057 38.9759 23.7471 38.8824C23.7886 38.7889 23.8481 38.7046 23.9223 38.6341C23.9964 38.5637 24.0837 38.5086 24.1792 38.472C24.2747 38.4354 24.3764 38.418 24.4786 38.4208Z" fill="#3A71B8"/>
<path d="M11.2681 21.5739C11.2681 20.5896 11.2681 19.6063 11.2681 18.6261C11.2681 18.0018 11.5555 17.7175 12.1851 17.7123C12.7483 17.707 13.3126 17.7007 13.8759 17.7123C15.4867 17.7544 16.5079 19.3367 15.8551 20.8033C15.7499 21.036 15.7878 21.157 15.9499 21.3392C16.6416 22.114 16.8163 23.0068 16.4015 23.9648C15.9941 24.9029 15.2435 25.4051 14.2212 25.4388C13.5274 25.464 12.8315 25.4514 12.1367 25.444C11.5682 25.4388 11.2723 25.1355 11.2692 24.5597C11.2649 23.5669 11.2681 22.573 11.2681 21.5739ZM12.8589 23.8669C13.3442 23.8669 13.7896 23.8848 14.2328 23.8669C14.4447 23.8523 14.6437 23.76 14.7918 23.6077C14.9398 23.4554 15.0264 23.2538 15.035 23.0415C15.0571 22.6352 14.755 22.1993 14.3465 22.1614C13.858 22.1172 13.3632 22.1509 12.8589 22.1509V23.8669ZM12.8694 19.2904V20.5538H13.6716C13.7504 20.5559 13.8292 20.5527 13.9075 20.5443C14.0657 20.525 14.2113 20.4485 14.317 20.3293C14.4227 20.21 14.4811 20.0562 14.4812 19.8968C14.4753 19.7374 14.4082 19.5864 14.294 19.475C14.1797 19.3637 14.027 19.3006 13.8675 19.2988C13.5421 19.2788 13.2137 19.2904 12.8694 19.2904Z" fill="#3A71B8"/>
<path d="M17.1616 20.7317C17.1616 20.0621 17.1616 19.3925 17.1616 18.723C17.1616 18.0586 17.429 17.7154 17.9375 17.7123C18.4461 17.7091 18.7398 18.0702 18.7398 18.7482C18.7398 20.0221 18.7398 21.2949 18.7398 22.5688C18.7398 23.2363 19.0956 23.6848 19.7357 23.8396C20.319 23.9806 21.1044 23.669 21.3328 23.171C21.4076 22.99 21.4435 22.7952 21.4381 22.5994C21.4465 21.2992 21.4381 20 21.4465 18.704C21.444 18.5084 21.4797 18.3142 21.5518 18.1323C21.6887 17.8165 22.0603 17.6586 22.4119 17.7302C22.5818 17.7622 22.7352 17.8525 22.8457 17.9855C22.9562 18.1185 23.0169 18.2858 23.0173 18.4587C23.0247 19.981 23.0563 21.5055 23.0005 23.0268C22.9583 24.1996 21.9224 25.1619 20.579 25.4124C18.8619 25.7283 17.0574 24.3681 17.1659 22.6257C17.189 22.2593 17.1659 21.8887 17.1659 21.5234L17.1616 20.7317Z" fill="#3A71B8"/>
<path d="M26.3357 20.0611C26.7916 19.3631 27.2043 18.7251 27.6244 18.0923C27.7049 17.9545 27.8271 17.8458 27.9733 17.7817C28.1195 17.7176 28.2822 17.7014 28.4382 17.7354C28.7614 17.7975 29.0151 18.006 29.0425 18.3282C29.0562 18.5843 28.9931 18.8387 28.8614 19.0588C28.355 19.8852 27.8086 20.6854 27.2885 21.5066C27.1882 21.6709 27.1319 21.8584 27.1253 22.0508C27.1074 22.8773 27.118 23.7037 27.1127 24.5302C27.1127 25.1082 26.8074 25.4524 26.3189 25.4472C25.8304 25.4419 25.5388 25.0882 25.5367 24.5123C25.5367 23.6858 25.5482 22.8583 25.5367 22.033C25.5309 21.8408 25.4751 21.6535 25.3745 21.4897C24.8576 20.6696 24.3217 19.8621 23.7953 19.0483C23.4795 18.5598 23.5363 18.1081 23.9364 17.8407C24.3365 17.5733 24.7902 17.6975 25.1061 18.1734C25.503 18.783 25.8999 19.3967 26.3357 20.0611Z" fill="#3A71B8"/>
</g>
<defs>
<clipPath id="clip0_3_182">
<rect width="40.3485" height="40" fill="white"/>
</clipPath>
</defs>
</svg>
