<svg width="46" height="46" viewBox="0 0 46 46" fill="none" xmlns="http://www.w3.org/2000/svg">
<g clip-path="url(#clip0_5_194)">
<path d="M-0.000192419 9.50209C0.149038 8.81279 0.294717 8.12348 0.452239 7.43655C0.503183 7.23489 0.568086 7.03702 0.646477 6.84436C0.863217 6.28297 1.33697 6.0378 1.83085 6.22494C2.3046 6.40496 2.50594 6.88345 2.3117 7.43655C1.9293 8.51113 1.74783 9.64689 1.77637 10.7871C1.87585 14.9526 5.21104 18.604 9.35635 19.0872C14.0619 19.6297 18.1479 16.6142 19.0338 11.9478C19.934 7.20086 16.3939 2.41599 11.596 1.86289C10.1972 1.69419 8.77832 1.85189 7.45069 2.32361C6.92127 2.51074 6.48779 2.36507 6.26632 1.95054C6.00457 1.46376 6.2142 0.910658 6.77678 0.695102C8.2608 0.12305 9.80641 -0.133959 11.384 0.0650151C16.0848 0.657201 19.1345 3.24505 20.5712 7.74922C20.5842 7.79067 20.5996 7.83094 20.6328 7.92096C20.7512 7.81081 20.8696 7.72198 20.9644 7.62249C21.8219 6.76738 22.6746 5.90634 23.5368 5.05477C24.8479 3.76026 26.6505 3.75197 27.9581 5.05477C29.7347 6.81357 31.4899 8.58421 33.3091 10.4046C33.3298 10.2819 33.3441 10.1581 33.3517 10.0339C33.3517 9.57552 33.3517 9.11836 33.3517 8.66C33.3517 7.78949 33.6561 7.48274 34.5219 7.48155H38.9041C39.8066 7.48155 40.0884 7.76699 40.0884 8.68251C40.0884 11.3568 40.0944 14.0311 40.0825 16.7043C40.0738 16.8554 40.0986 17.0066 40.1551 17.147C40.2116 17.2875 40.2985 17.4137 40.4094 17.5167C41.9361 19.0197 43.4461 20.5393 44.9598 22.0553C45.559 22.6557 45.559 23.0703 44.9598 23.6755C44.0632 24.5756 43.2187 25.5397 42.2416 26.3427C41.73 26.7655 41.6956 27.1895 41.6968 27.7343C41.7039 31.6641 41.7039 35.5934 41.6968 39.5224V40.0921C42.2108 40.0921 42.6798 40.0921 43.1477 40.0921C43.8583 40.0921 44.1733 40.4118 44.1781 41.1236C44.1852 42.1718 44.1603 43.2212 44.1887 44.2693C44.2018 44.8047 44.0229 45.1825 43.5397 45.4111H7.89009C7.41635 45.1209 7.26474 44.6922 7.28014 44.1438C7.30975 43.156 7.28014 42.1659 7.2908 41.1829C7.2908 40.4237 7.61769 40.1027 8.36858 40.098C8.82219 40.098 9.27581 40.098 9.77206 40.098V39.5224C9.77206 35.5962 9.76377 31.67 9.78035 27.7426C9.78035 27.1706 9.72469 26.7383 9.21422 26.3214C8.37213 25.6332 7.66862 24.7817 6.87272 24.032C5.8364 23.0596 5.81389 22.6688 6.86206 21.7142C7.22448 21.3837 7.55729 21.0225 7.92207 20.6565C4.21617 19.5337 1.71004 17.2574 0.499609 13.6391C0.262735 12.9285 0.16088 12.1835 -0.00256348 11.4539L-0.000192419 9.50209ZM25.7682 11.377C25.6699 11.4622 25.5894 11.525 25.5171 11.5972C20.9375 16.1729 16.3627 20.7524 11.7926 25.336C11.6476 25.4921 11.5635 25.6951 11.5557 25.908C11.5423 30.5034 11.5391 35.0983 11.5462 39.6929C11.5462 39.8196 11.564 39.9464 11.5735 40.066H20.5901V39.5153C20.5901 36.0143 20.5901 32.5125 20.5901 29.0099C20.5901 28.1642 20.8969 27.8587 21.7366 27.8587H29.6719C30.6194 27.8587 30.874 28.1204 30.8752 29.075V40.0613H39.9203V39.719C39.9203 35.1094 39.9203 30.4998 39.9072 25.8891C39.8875 25.6496 39.7839 25.4248 39.6147 25.2542C35.7789 21.4003 31.936 17.5531 28.086 13.7125C27.3174 12.9344 26.5475 12.1598 25.7682 11.377ZM43.2187 22.8334C43.1773 22.786 43.1417 22.7398 43.1003 22.6984C37.6474 17.2503 32.1938 11.7986 26.7394 6.34337C26.0761 5.68131 25.4022 5.69315 24.7259 6.36114C23.5416 7.53959 22.3572 8.71448 21.1941 9.91425C21.0451 10.0994 20.9537 10.3243 20.9312 10.5609C20.8519 11.1152 20.8578 11.6825 20.7571 12.2309C20.6292 12.9249 20.4302 13.6059 20.2455 14.3628L24.8302 9.77568C25.5692 9.03664 25.9079 9.03427 26.6375 9.76384C31.465 14.589 36.2902 19.4157 41.1129 24.244C41.2195 24.3774 41.3094 24.5234 41.3806 24.6786L43.2187 22.8334ZM29.0844 29.6566H22.3904V40.0589H29.0844V29.6566ZM9.08631 43.6085H42.3672V41.8899H9.08631V43.6085ZM35.1247 9.27469C35.1247 10.2222 35.1153 11.1271 35.1342 12.0272C35.157 12.182 35.2318 12.3244 35.3462 12.431C35.9218 13.0232 36.5128 13.6024 37.0955 14.1898C37.4733 14.57 37.8452 14.9585 38.2882 15.4121V9.27469H35.1247ZM9.9888 24.5187C11.4101 23.0975 12.8313 21.6763 14.2525 20.255C14.2597 20.255 14.2277 20.2361 14.2064 20.2443C12.976 20.7075 11.6717 20.9431 10.3571 20.9396C10.2296 20.9455 10.1081 20.9958 10.0137 21.0817C9.42149 21.6538 8.8293 22.2376 8.25133 22.8132L9.9888 24.5187Z" fill="#5F5F5F"/>
<path d="M9.57565 15.2725C9.00833 15.0167 8.48603 14.8165 8.00044 14.55C7.51484 14.2835 7.36917 13.7446 7.63328 13.3052C7.8974 12.8658 8.41852 12.7379 8.90411 13.0518C9.3897 13.3656 9.94162 13.4497 10.5125 13.4071C10.8029 13.3892 11.0777 13.2696 11.2886 13.0692C11.4996 12.8689 11.6332 12.6006 11.6661 12.3115C11.7359 11.8129 11.4872 11.4825 10.8867 11.2338C10.2353 10.959 9.57684 10.6937 8.95268 10.3656C8.10585 9.9203 7.68302 9.18125 7.73395 8.22073C7.78843 7.20454 8.26337 6.41456 9.20258 5.97042C9.45366 5.85198 9.58868 5.75013 9.60408 5.43982C9.61932 5.21561 9.72137 5.00618 9.88856 4.85601C10.0558 4.70585 10.2749 4.62679 10.4995 4.63563C10.724 4.63873 10.9384 4.72979 11.0965 4.88924C11.2546 5.0487 11.3439 5.26382 11.3451 5.48838C11.3352 5.58835 11.3628 5.68843 11.4226 5.7692C11.4823 5.84996 11.5699 5.90563 11.6684 5.92541C11.9462 6.02394 12.2108 6.15641 12.456 6.31981C12.6555 6.43857 12.7996 6.63159 12.8569 6.85651C12.9142 7.08143 12.8799 7.31989 12.7616 7.51958C12.5093 7.94714 12.0166 8.04189 11.5228 7.82396C11.1687 7.65262 10.7897 7.5383 10.4 7.48523C9.92623 7.43786 9.63724 7.7079 9.52472 8.1319C9.40628 8.58315 9.68698 8.79278 10.0233 8.94793C10.5054 9.16941 10.9922 9.38378 11.4884 9.56736C12.6728 10.0056 13.3692 10.8157 13.4485 12.0924C13.5196 13.2425 12.7841 14.3972 11.672 14.9219C11.4635 15.019 11.3534 15.1126 11.3522 15.3708C11.3522 15.9393 11.0076 16.3017 10.5231 16.3183C10.0387 16.3349 9.65382 15.9689 9.59579 15.3945C9.57921 15.34 9.57565 15.282 9.57565 15.2725Z" fill="#3A71B8"/>
<path d="M2.81764 3.70116C2.81587 3.58652 2.83721 3.4727 2.88038 3.36648C2.92354 3.26026 2.98765 3.16382 3.06889 3.08292C3.15013 3.00201 3.24683 2.93829 3.35322 2.89556C3.45962 2.85283 3.57353 2.83196 3.68816 2.8342C3.9197 2.83071 4.14317 2.91912 4.30966 3.08006C4.47615 3.241 4.57208 3.46135 4.57644 3.69287C4.5766 3.81127 4.55333 3.92852 4.50799 4.03789C4.46265 4.14726 4.39612 4.24657 4.31224 4.33013C4.22836 4.41368 4.12878 4.47982 4.01924 4.52473C3.90969 4.56964 3.79234 4.59243 3.67395 4.59181C3.44243 4.58683 3.22232 4.49031 3.06182 4.32337C2.90132 4.15644 2.81352 3.9327 2.81764 3.70116Z" fill="#5F5F5F"/>
<path d="M25.8086 18.0652C26.3041 18.0734 26.7931 18.1791 27.2476 18.3764C27.7022 18.5736 28.1134 18.8585 28.4578 19.2148C28.8022 19.5711 29.073 19.9917 29.2547 20.4527C29.4364 20.9137 29.5255 21.406 29.5169 21.9014C29.4924 22.8942 29.0785 23.8374 28.3645 24.5277C27.6506 25.2179 26.6939 25.5997 25.7009 25.5907C25.1978 25.5859 24.7008 25.4801 24.2394 25.2795C23.778 25.079 23.3616 24.7878 23.0148 24.4233C22.6681 24.0588 22.3981 23.6283 22.2209 23.1575C22.0436 22.6866 21.9628 22.185 21.9831 21.6823C22.0293 19.6618 23.7703 18.0179 25.8086 18.0652ZM25.734 19.8418C25.4711 19.8411 25.2106 19.893 24.968 19.9944C24.7254 20.0957 24.5055 20.2446 24.3213 20.4322C24.137 20.6198 23.9921 20.8423 23.895 21.0866C23.798 21.331 23.7507 21.5923 23.7561 21.8552C23.7586 22.378 23.9677 22.8785 24.3378 23.2477C24.7079 23.6169 25.2089 23.8248 25.7316 23.826C26.2618 23.826 26.7705 23.617 27.1475 23.2443C27.5244 22.8715 27.7392 22.3652 27.7451 21.8351C27.7448 21.5717 27.6925 21.3109 27.5911 21.0678C27.4898 20.8247 27.3414 20.604 27.1546 20.4183C26.9677 20.2327 26.746 20.0858 26.5023 19.986C26.2585 19.8863 25.9974 19.8356 25.734 19.837V19.8418Z" fill="#5F5F5F"/>
</g>
<defs>
<clipPath id="clip0_5_194">
<rect width="45.41" height="45.4088" fill="white"/>
</clipPath>
</defs>
</svg>
