<svg width="42" height="32" viewBox="0 0 42 32" fill="none" xmlns="http://www.w3.org/2000/svg">
<g clip-path="url(#clip0_6_218)">
<path d="M23.4525 15.4439C23.625 14.7202 23.783 14.0566 23.9594 13.3212C23.7112 13.3212 23.4617 13.3317 23.2122 13.3212C22.6636 13.2925 22.3657 13.0064 22.3566 12.4604C22.2913 8.62261 22.2316 4.78526 22.1776 0.94834C22.1685 0.317417 22.4755 0.00653144 23.1012 0.00522518C27.876 0.00522518 32.6503 0.00522518 37.4243 0.00522518C38.0252 0.00522518 38.2942 0.253411 38.3752 0.892172C38.6208 2.83458 38.852 4.77829 39.0898 6.722C39.3001 8.43843 39.4973 10.1575 39.7246 11.8713C39.8827 13.0639 39.6789 13.3238 38.4967 13.3251H37.9311C38.1035 14.0475 38.2668 14.7346 38.4301 15.423C38.4588 15.436 38.4889 15.4622 38.5176 15.4596C39.6528 15.3916 39.7808 15.7835 39.8957 16.7528C40.4457 21.3704 41.0269 25.9841 41.603 30.5991C41.7023 31.3998 41.4005 31.7578 40.5789 31.7591H23.2239C22.4689 31.7591 22.1907 31.4821 22.1789 30.7297C22.111 26.0751 22.0444 21.4213 21.9791 16.7684C21.9634 15.6529 22.1097 15.5079 23.2213 15.47C23.301 15.4635 23.3807 15.4517 23.4525 15.4439ZM38.0826 11.6557C37.6699 8.29996 37.2597 4.97162 36.8495 1.63674H23.9084V11.657C24.5537 11.7655 24.9534 11.657 25.3636 11.1907C28.368 7.76962 33.6283 7.77876 36.5439 11.2116C37.005 11.7589 37.47 11.7407 38.0813 11.6584L38.0826 11.6557ZM39.9284 30.155C39.3967 25.8365 38.8768 21.6042 38.3413 17.2544C38.0369 18.0577 37.8188 18.7526 37.5157 19.4084C35.973 22.7472 33.8491 25.7176 31.6167 28.6136C31.2182 29.1361 30.6618 29.1126 30.2595 28.5901C29.592 27.724 28.9284 26.8541 28.3001 25.958C26.4922 23.3598 24.7131 20.7421 23.7164 17.6907C23.7164 17.675 23.6668 17.6711 23.6054 17.6502C23.6054 17.7808 23.6054 17.8879 23.6054 17.9989C23.6563 21.8537 23.719 25.7059 23.7451 29.5606C23.7451 30.0831 23.9228 30.1654 24.3904 30.1641C29.3542 30.1484 34.3298 30.155 39.3001 30.155H39.9284ZM30.9479 26.8893C31.5135 26.1056 32.0556 25.3728 32.5728 24.6243C33.8922 22.7197 35.1566 20.7826 36.1063 18.6586C36.5073 17.7612 36.8561 16.8416 36.8051 15.8358C36.7619 14.974 36.5294 14.1322 36.1243 13.3704C35.7191 12.6085 35.1512 11.9452 34.4608 11.4275C33.7705 10.9099 32.9746 10.5505 32.1298 10.3751C31.2849 10.1996 30.4118 10.2122 29.5724 10.4122C26.2688 11.2051 24.1579 14.8535 25.5321 18.0669C26.9063 21.2803 28.8892 24.0469 30.9452 26.8867L30.9479 26.8893Z" fill="#3A71B8"/>
<path d="M9.70552 31.712H1.19917C0.142407 31.712 -0.0966452 31.4181 0.0326744 30.3823C0.510765 26.5445 0.981024 22.7063 1.44344 18.8676C1.54925 18.0094 1.64592 17.1499 1.75956 16.2916C1.84708 15.6385 2.11486 15.4073 2.76537 15.4073C8.06094 15.4073 13.3565 15.4073 18.6521 15.4073C19.3444 15.4073 19.637 15.7038 19.6279 16.3988C19.5634 21.1832 19.4955 25.9675 19.4241 30.7519C19.4136 31.439 19.1119 31.7094 18.3569 31.7107C15.4726 31.7151 12.5889 31.7155 9.70552 31.712ZM18.012 17.0597H3.28526C2.751 21.4057 2.21935 25.7241 1.68509 30.0675H17.8318C17.8918 25.7228 17.9519 21.4161 18.012 17.0597Z" fill="#5F5F5F"/>
<path d="M10.9569 13.3225C8.41578 13.3225 5.87466 13.3225 3.33356 13.3225C2.45052 13.3225 2.17229 12.9829 2.28855 12.1077C2.75445 8.3692 3.21686 4.62982 3.67579 0.889565C3.75809 0.224679 4.0102 0.00391646 4.66333 0.00261021C9.40505 0.00261021 14.1459 0.00261021 18.8859 0.00261021C19.5782 0.00261021 19.859 0.289989 19.8499 0.992756C19.8037 4.74694 19.7541 8.50156 19.701 12.2566C19.6892 13.0691 19.4175 13.3212 18.588 13.3212L10.9569 13.3225ZM18.0943 11.6884C18.1439 8.31303 18.1935 4.98991 18.2432 1.64589H5.18061C4.76652 5.01342 4.35897 8.33785 3.94881 11.6884H18.0943Z" fill="#5F5F5F"/>
<path d="M34.5989 15.9337C34.5947 16.9066 34.2048 17.838 33.5147 18.5237C32.8246 19.2094 31.8907 19.5933 30.9178 19.5913C29.9454 19.5768 29.0178 19.1795 28.3365 18.4854C27.6552 17.7914 27.275 16.8567 27.2786 15.8841C27.293 14.9109 27.692 13.9829 28.3882 13.3028C29.0845 12.6226 30.0216 12.2456 30.9949 12.254C31.9595 12.2681 32.8794 12.6627 33.5544 13.3519C34.2294 14.0411 34.6048 14.9691 34.5989 15.9337ZM28.8997 15.905C28.8948 16.1736 28.9433 16.4404 29.0422 16.6901C29.1411 16.9399 29.2885 17.1675 29.4759 17.3599C29.6633 17.5523 29.887 17.7056 30.1341 17.8111C30.3811 17.9165 30.6466 17.9719 30.9152 17.9741C31.1883 17.977 31.4593 17.9259 31.7124 17.8235C31.9656 17.7211 32.196 17.5696 32.3904 17.3778C32.5847 17.1859 32.7391 16.9574 32.8446 16.7055C32.9501 16.4536 33.0047 16.1833 33.0052 15.9102C32.9955 15.3679 32.7752 14.8506 32.3911 14.4677C32.0069 14.0847 31.4889 13.8661 30.9466 13.8581C30.4038 13.8584 29.8834 14.0742 29.4996 14.458C29.1158 14.8418 28.9 15.3622 28.8997 15.905Z" fill="#5F5F5F"/>
</g>
<defs>
<clipPath id="clip0_6_218">
<rect width="41.62" height="31.7564" fill="white"/>
</clipPath>
</defs>
</svg>
