<svg width="46" height="44" viewBox="0 0 46 44" fill="none" xmlns="http://www.w3.org/2000/svg">
<g clip-path="url(#clip0_6_241)">
<path d="M0 13.1715C0.111351 13.008 0.266474 12.8793 0.44762 12.7999C0.628766 12.7205 0.828627 12.6937 1.02428 12.7227C1.5997 12.7514 2.17513 12.7227 2.75055 12.7227C2.85021 12.7121 2.95095 12.7227 3.0462 12.7539C3.14146 12.785 3.22905 12.836 3.30322 12.9033C3.3774 12.9707 3.4365 13.053 3.47661 13.1449C3.51673 13.2367 3.53697 13.336 3.53601 13.4362C3.53601 13.8505 3.22239 14.121 2.73615 14.1325C2.32185 14.1325 1.91044 14.1325 1.49901 14.1497C1.49901 14.1497 1.47597 14.1497 1.44145 14.1929V35.3398H41.5141C43.0994 35.3398 44.1438 34.0738 43.7439 32.6439C43.6233 32.2157 43.3706 31.8364 43.022 31.56C42.6733 31.2837 42.2463 31.1243 41.8018 31.1047C41.3904 31.1047 40.979 31.1047 40.5647 31.1047C39.808 31.1047 39.5865 30.886 39.5865 30.1379V14.1411H37.3711C37.1668 14.1411 36.9596 14.1411 36.7553 14.1411C36.6629 14.1407 36.5715 14.1221 36.4862 14.0863C36.401 14.0505 36.3237 13.9982 36.2588 13.9324C36.1938 13.8667 36.1425 13.7887 36.1077 13.7031C36.073 13.6174 36.0555 13.5258 36.0562 13.4333C36.0554 13.3407 36.0733 13.2488 36.1087 13.1632C36.1441 13.0776 36.1964 13.0001 36.2625 12.9351C36.3285 12.8701 36.4069 12.8191 36.4931 12.7851C36.5793 12.7511 36.6714 12.7347 36.764 12.737C37.5897 12.737 38.4126 12.737 39.2383 12.737H39.5865V9.5722C39.5865 8.66878 39.7649 8.48464 40.6654 8.4904C41.1945 8.46911 41.7245 8.48835 42.2507 8.54794C43.0905 8.66779 43.8577 9.09046 44.4077 9.73638C44.9577 10.3823 45.2526 11.2069 45.2371 12.0552C45.2371 14.0692 45.2371 16.0831 45.2371 18.0971C45.2371 23.0458 45.2371 27.9926 45.2371 32.9374C45.2371 35.2707 43.764 36.7525 41.4393 36.7525C27.9686 36.7525 14.4979 36.7525 1.02716 36.7525C0.831748 36.7743 0.634024 36.744 0.454117 36.6647C0.27421 36.5853 0.11852 36.4598 0.00287994 36.3008L0 13.1715ZM43.7928 30.3767C43.7928 30.2616 43.8187 30.2185 43.8187 30.1753C43.8187 24.1142 43.8187 18.053 43.8187 11.9919C43.8121 11.6587 43.7282 11.3317 43.5736 11.0365C43.4191 10.7413 43.1981 10.486 42.9281 10.2908C42.6581 10.0955 42.3465 9.96563 42.0177 9.91133C41.6889 9.85704 41.3521 9.87982 41.0336 9.97789V29.7092C42.0038 29.5911 42.9839 29.8282 43.7928 30.3767Z" fill="#3A71B8"/>
<path d="M0 40.4726C0.0805597 40.2712 0.149636 40.064 0.241704 39.8713C0.451732 39.3608 0.811688 38.9261 1.27402 38.6246C1.73636 38.323 2.27931 38.1688 2.83112 38.1824C4.61207 38.1565 6.39299 38.1824 8.17394 38.1824C18.7445 38.1824 29.3132 38.1824 39.8799 38.1824C40.2574 38.1894 40.6292 38.2766 40.9703 38.4385C42.219 39.0312 43.4447 39.6699 44.6847 40.2798C44.9955 40.4323 45.24 40.6251 45.24 40.9991C45.24 41.3732 44.9955 41.5746 44.6847 41.7184C43.3929 42.3571 42.0953 43.0131 40.815 43.6432C40.5784 43.7557 40.3202 43.8156 40.0583 43.8187C27.6924 43.8187 15.3274 43.8187 2.96346 43.8187C1.52489 43.8187 0.520775 43.062 0.086328 41.6695C0.0635474 41.6179 0.0355809 41.5687 0.00287994 41.5228L0 40.4726ZM39.5577 39.6095H6.39586V42.3859H39.5692L39.5577 39.6095ZM4.92277 42.3974V39.5864C4.1517 39.5864 3.40364 39.5548 2.65847 39.5864C2.31762 39.6194 2.00135 39.7783 1.77148 40.0322C1.54161 40.286 1.41469 40.6164 1.41556 40.9588C1.40645 41.3087 1.52967 41.6491 1.76063 41.9121C1.99158 42.175 2.31324 42.3412 2.66135 42.3773C3.40652 42.4406 4.15457 42.406 4.92277 42.406V42.3974ZM41.0135 41.9572L42.9469 40.9905L41.0135 40.0353V41.9572Z" fill="#3A71B8"/>
<path d="M19.7861 22.6258H5.97584C5.16737 22.6258 4.96021 22.4186 4.96021 21.6073C4.96021 17.5793 4.96021 13.5513 4.96021 9.50604C4.96724 9.17186 5.06684 8.84617 5.24792 8.56522C7.00872 5.88661 8.80117 3.22527 10.5706 0.549535C10.6722 0.372727 10.8211 0.227694 11.0005 0.130644C11.1798 0.0335934 11.3826 -0.0116382 11.5862 1.02714e-05C17.0643 0.0115188 22.5414 0.0115188 28.0175 1.02714e-05C28.2214 -0.0115407 28.4244 0.0343691 28.6035 0.13254C28.7825 0.230711 28.9304 0.377197 29.0303 0.555294C30.7997 3.23103 32.5922 5.88949 34.353 8.57098C34.5303 8.83771 34.6299 9.14852 34.6407 9.46864C34.658 13.5311 34.6407 17.5937 34.6407 21.659C34.6407 22.4042 34.4191 22.6258 33.6625 22.6258H19.7861ZM17.703 9.92035V21.1901H33.1935V9.92035H17.703ZM12.6565 1.42131C12.7313 1.55366 12.7688 1.62847 12.8148 1.70903C14.2534 3.88701 15.7236 6.06212 17.165 8.24874C17.222 8.33982 17.3044 8.41228 17.402 8.45725C17.4996 8.50222 17.6083 8.51776 17.7145 8.50193H32.2038C32.3102 8.50193 32.4196 8.50192 32.5721 8.47891C32.4742 8.31779 32.408 8.19119 32.3361 8.09912C30.9321 5.99306 29.5223 3.89276 28.1326 1.76944C28.0655 1.65158 27.9656 1.55571 27.8451 1.49342C27.7246 1.43112 27.5886 1.40509 27.4536 1.41843C22.6833 1.42994 17.9131 1.42994 13.1428 1.41843L12.6565 1.42131ZM16.2357 9.92611H6.39017V21.1757H7.77405V12.2192C7.77405 11.5546 8.01574 11.3186 8.68323 11.3158H13.8621C14.6418 11.3158 14.8547 11.5287 14.8547 12.3112V21.1814H16.2472L16.2357 9.92611ZM9.20397 21.1901H13.4046V12.7601H9.20397V21.1901ZM15.6315 8.47315L11.3158 1.9881L7.00012 8.47315H15.6315Z" fill="#5F5F5F"/>
<path d="M23.3249 25.4511H9.54339C9.39599 25.4641 9.24771 25.4641 9.1003 25.4511C8.92859 25.4371 8.76904 25.357 8.65525 25.2276C8.54146 25.0983 8.48233 24.9298 8.49035 24.7577C8.48229 24.5853 8.54131 24.4165 8.65504 24.2867C8.76876 24.1568 8.92834 24.0761 9.1003 24.0614C9.2324 24.0499 9.36526 24.0499 9.49735 24.0614H37.1495C37.2815 24.0499 37.4144 24.0499 37.5465 24.0614C37.7182 24.0754 37.8778 24.1555 37.9916 24.2849C38.1054 24.4142 38.1645 24.5827 38.1564 24.7548C38.1652 24.9274 38.1065 25.0966 37.9926 25.2266C37.8787 25.3566 37.7187 25.4371 37.5465 25.4511C37.4001 25.4641 37.2527 25.4641 37.1063 25.4511H23.3249Z" fill="#5F5F5F"/>
<path d="M20.4593 28.2793H9.59524C9.46289 28.2793 9.3277 28.2793 9.19535 28.2793C9.00912 28.2801 8.83008 28.2074 8.69705 28.0771C8.56402 27.9468 8.4877 27.7693 8.48467 27.5831C8.48353 27.4906 8.50066 27.3989 8.53507 27.3131C8.56948 27.2273 8.62052 27.1491 8.68521 27.0831C8.74991 27.0171 8.82699 26.9645 8.91206 26.9283C8.99714 26.8921 9.08851 26.8731 9.18095 26.8724C9.28165 26.8724 9.38521 26.8724 9.48879 26.8724H31.4874C31.6194 26.8609 31.7523 26.8609 31.8844 26.8724C32.0561 26.8856 32.2161 26.9644 32.3312 27.0924C32.4464 27.2205 32.5079 27.3879 32.503 27.56C32.5134 27.7322 32.4566 27.9017 32.3443 28.0327C32.2321 28.1637 32.0734 28.2459 31.9016 28.2621C31.7548 28.2813 31.6064 28.2861 31.4586 28.2764L20.4593 28.2793Z" fill="#5F5F5F"/>
<path d="M19.1416 32.5202H28.6361C28.7826 32.5072 28.9299 32.5072 29.0763 32.5202C29.2486 32.5342 29.4086 32.6147 29.5225 32.7447C29.6363 32.8747 29.6951 33.0439 29.6863 33.2165C29.6943 33.3886 29.6352 33.5571 29.5214 33.6864C29.4076 33.8158 29.2481 33.8959 29.0763 33.9099C28.9299 33.9228 28.7826 33.9228 28.6361 33.9099H9.41976C8.8242 33.9099 8.49622 33.6567 8.49622 33.2021C8.49622 32.7475 8.8242 32.4972 9.41976 32.4972L19.1416 32.5202Z" fill="#5F5F5F"/>
<path d="M16.9635 29.692H24.4268C24.5589 29.6804 24.6917 29.6804 24.8238 29.692C24.9958 29.7067 25.1554 29.7874 25.2691 29.9172C25.3828 30.047 25.4418 30.2159 25.4338 30.3883C25.4418 30.5607 25.3828 30.7295 25.2691 30.8593C25.1554 30.9891 24.9958 31.0698 24.8238 31.0845C24.6917 31.0961 24.5589 31.0961 24.4268 31.0845H9.49735C9.36525 31.0961 9.2324 31.0961 9.1003 31.0845C8.92834 31.0698 8.76876 30.9891 8.65504 30.8593C8.54131 30.7295 8.48229 30.5607 8.49035 30.3883C8.48229 30.2159 8.54131 30.047 8.65504 29.9172C8.76876 29.7874 8.92834 29.7067 9.1003 29.692C9.2324 29.6804 9.36525 29.6804 9.49735 29.692H16.9635Z" fill="#5F5F5F"/>
<path d="M4.94583 28.2793C4.48836 28.2793 4.03377 28.2793 3.57631 28.2793C3.47606 28.2867 3.37541 28.2723 3.28125 28.2371C3.1871 28.2019 3.10168 28.1467 3.03088 28.0754C2.96007 28.004 2.90555 27.9182 2.87107 27.8238C2.83659 27.7293 2.82298 27.6286 2.83114 27.5284C2.81963 26.6154 2.81963 25.7033 2.83114 24.7922C2.82229 24.6919 2.83555 24.5908 2.87006 24.4962C2.90456 24.4016 2.95945 24.3157 3.03081 24.2446C3.10216 24.1735 3.18825 24.119 3.28301 24.0849C3.37777 24.0507 3.47889 24.0378 3.57919 24.0471C4.49028 24.0317 5.40233 24.0317 6.31534 24.0471C6.41553 24.0383 6.5164 24.0516 6.61092 24.0859C6.70545 24.1202 6.79132 24.1748 6.86257 24.2458C6.93381 24.3167 6.9887 24.4024 7.02339 24.4968C7.05807 24.5912 7.07173 24.692 7.06339 24.7922C7.0749 25.7072 7.0749 26.6202 7.06339 27.5313C7.07117 27.6315 7.05714 27.7322 7.0223 27.8265C6.98745 27.9208 6.93263 28.0064 6.86155 28.0775C6.79047 28.1486 6.70482 28.2034 6.61054 28.2382C6.51625 28.2731 6.41556 28.2871 6.31534 28.2793C5.85788 28.288 5.40329 28.2793 4.94583 28.2793ZM5.63058 26.8408V25.4712H4.26971V26.8408H5.63058Z" fill="#5F5F5F"/>
<path d="M4.97451 29.6949C5.41471 29.6949 5.85778 29.6949 6.29798 29.6949C6.40187 29.6853 6.50658 29.699 6.60456 29.7348C6.70253 29.7706 6.79131 29.8278 6.86452 29.9021C6.93774 29.9764 6.99357 30.0661 7.02794 30.1645C7.06232 30.263 7.07439 30.368 7.06331 30.4717C7.07482 31.3693 7.07482 32.267 7.06331 33.1647C7.07331 33.2684 7.06006 33.3731 7.02457 33.4711C6.98908 33.5691 6.93224 33.6579 6.85813 33.7312C6.78403 33.8045 6.69454 33.8603 6.59616 33.8947C6.49778 33.9291 6.39296 33.9412 6.28934 33.93C5.39168 33.93 4.49114 33.93 3.59347 33.93C3.48973 33.9406 3.38492 33.9278 3.2868 33.8925C3.18867 33.8572 3.09974 33.8003 3.02655 33.726C2.95336 33.6517 2.89777 33.5619 2.86394 33.4633C2.8301 33.3646 2.81888 33.2596 2.83106 33.1561C2.83106 32.2584 2.83106 31.3578 2.83106 30.4602C2.82107 30.3564 2.83428 30.2518 2.86977 30.1538C2.90525 30.0558 2.9621 29.9669 3.03621 29.8937C3.11031 29.8204 3.19983 29.7645 3.29821 29.7301C3.39659 29.6957 3.50138 29.6837 3.60499 29.6949C4.05958 29.6862 4.51705 29.692 4.97451 29.6949ZM5.61611 32.5116V31.1363H4.27247V32.5116H5.61611Z" fill="#5F5F5F"/>
<path d="M24.7375 14.1555C24.7375 14.8201 24.7375 15.4818 24.7375 16.1436C24.7375 16.6989 24.4757 16.9664 23.9319 16.9664C22.5893 16.9664 21.2466 16.9664 19.904 16.9664C19.3516 16.9664 19.0869 16.7046 19.084 16.158C19.084 14.8153 19.084 13.4726 19.084 12.13C19.084 11.5747 19.3458 11.31 19.8924 11.3071C21.2351 11.3071 22.5778 11.3071 23.9204 11.3071C24.4958 11.3071 24.7404 11.5718 24.7462 12.1703C24.7404 12.832 24.7375 13.4937 24.7375 14.1555ZM21.1958 12.7572H20.5283V13.4017H21.1958V12.7572ZM22.6516 12.7572V13.4247H23.2961V12.7572H22.6516ZM20.5197 14.8805V15.5423H21.1728V14.8805H20.5197ZM22.6372 15.5451H23.2961V14.892H22.6372V15.5451Z" fill="#5F5F5F"/>
<path d="M28.9928 16.9693C28.3282 16.9693 27.6665 16.9693 27.0047 16.9693C26.4293 16.9693 26.156 16.7133 26.1416 16.1436C26.1416 14.8009 26.1416 13.4583 26.1416 12.1156C26.1416 11.5689 26.4092 11.3129 26.9645 11.31C28.3071 11.31 29.6498 11.31 30.9924 11.31C31.5391 11.31 31.7981 11.5776 31.8009 12.1329C31.8009 13.4755 31.8009 14.8182 31.8009 16.1608C31.8009 16.7046 31.5305 16.9636 30.9781 16.9693C30.3163 16.9751 29.6546 16.9693 28.9928 16.9693ZM27.5946 12.7486V13.4045H28.2506V12.7486H27.5946ZM29.7208 12.7486V13.4189H30.3595V12.7486H29.7208ZM27.5859 14.8776V15.5423H28.2419V14.8776H27.5859ZM29.7208 14.8776V15.548H30.3595V14.8776H29.7208Z" fill="#5F5F5F"/>
</g>
<defs>
<clipPath id="clip0_6_241">
<rect width="45.24" height="43.8302" fill="white"/>
</clipPath>
</defs>
</svg>
