<svg width="52" height="61" viewBox="0 0 52 61" fill="none" xmlns="http://www.w3.org/2000/svg">
<g clip-path="url(#clip0_23_431)">
<path d="M21.6861 0V60.6689H51.1736V0H21.6861ZM33.2034 53.9169H25.6292V46.3427H33.2034V53.9169ZM33.2034 40.7184H25.6292V33.1458H33.2034V40.7184ZM33.2034 27.5215H25.6292V19.9489H33.2034V27.5215ZM33.2034 14.3246H25.6292V6.75201H33.2034V14.3246ZM47.2225 53.9169H39.6483V46.3427H47.2225V53.9169ZM47.2225 40.7184H39.6483V33.1458H47.2225V40.7184ZM47.2225 27.5215H39.6483V19.9489H47.2225V27.5215ZM47.2225 14.3246H39.6483V6.75201H47.2225V14.3246Z" fill="#3A71B8"/>
<path d="M7.62939e-06 30.6936V60.669H19.0723V30.6936H7.62939e-06ZM7.44945 56.6603H2.5514V51.767H7.44945V56.6603ZM7.44945 48.1231H2.5514V43.2315H7.44945V48.1231ZM7.44945 39.5875H2.5514V34.6959H7.44945V39.5875ZM16.5193 56.6603H11.6197V51.767H16.5193V56.6603ZM16.5193 48.1231H11.6197V43.2315H16.5193V48.1231ZM16.5193 39.5875H11.6197V34.6959H16.5193V39.5875Z" fill="#3A71B8"/>
</g>
<defs>
<clipPath id="clip0_23_431">
<rect width="51.1784" height="60.6689" fill="white"/>
</clipPath>
</defs>
</svg>
